Coordinates
version=1
nRows=21
nColumns=12
inDegrees=yes

Units are S.I. units (second, meters, Newtons, ...)
Angles are in degrees

endheader
time	SC_y	SC_z	SC_x	AC_y	AC_z	AC_x	GH_y	GH_z	GH_yy	EL_x	PS_y
       0.0              -13.81          33.97          57.63          48.04          4.704       -0.06345          85.36         -7.948          103.6          71.62          31.15
    0.0321              -13.81          33.96          57.63          48.04          4.701       -0.06409          85.33         -7.947          103.6          71.61          31.15
   0.06421              -13.82          33.96          57.62          48.04          4.699       -0.06477           85.3         -7.947          103.6          71.61          31.16
   0.09631              -13.82          33.96          57.61          48.04          4.696       -0.06549          85.27         -7.946          103.5           71.6          31.16
    0.1284              -13.82          33.96          57.61          48.03          4.692       -0.06625          85.23         -7.945          103.5          71.59          31.16
    0.1605              -13.83          33.95           57.6          48.03          4.689       -0.06707          85.19         -7.945          103.5          71.58          31.16
    0.1926              -13.83          33.95          57.59          48.03          4.685       -0.06794          85.15         -7.944          103.4          71.57          31.17
    0.2247              -13.83          33.95          57.58          48.02          4.681       -0.06888          85.11         -7.943          103.4          71.56          31.17
    0.2568              -13.84          33.94          57.57          48.02          4.677       -0.06988          85.06         -7.943          103.3          71.55          31.17
    0.2889              -13.84          33.94          57.56          48.02          4.673       -0.07095          85.01         -7.942          103.3          71.54          31.18
     0.321              -13.85          33.93          57.55          48.01          4.668        -0.0721          84.96         -7.941          103.2          71.53          31.18
    0.3531              -13.85          33.93          57.54          48.01          4.663       -0.07334           84.9          -7.94          103.2          71.51          31.19
    0.3852              -13.86          33.92          57.52           48.0          4.657       -0.07467          84.83         -7.939          103.1           71.5          31.19
    0.4173              -13.87          33.92          57.51           48.0          4.651       -0.07612          84.77         -7.938          103.1          71.49           31.2
    0.4494              -13.87          33.91          57.49          47.99          4.644       -0.07768          84.69         -7.937          103.0          71.47           31.2
    0.4816              -13.88          33.91          57.48          47.99          4.637       -0.07937          84.61         -7.935          102.9          71.45          31.21
    0.5137              -13.89           33.9          57.46          47.98          4.629       -0.08121          84.53         -7.934          102.8          71.43          31.21
    0.5458               -13.9          33.89          57.44          47.97          4.621       -0.08322          84.43         -7.932          102.7          71.41          31.22
    0.5779              -13.91          33.89          57.42          47.96          4.612       -0.08541          84.33         -7.931          102.6          71.39          31.23
      0.61              -13.92          33.88          57.39          47.96          4.602        -0.0878          84.22         -7.929          102.5          71.36          31.24
    0.6421              -13.93          33.87          57.37          47.95          4.591       -0.09043          84.09         -7.927          102.4          71.33          31.25
